<svg width="18" height="22" viewBox="0 0 18 22" fill="none" xmlns="http://www.w3.org/2000/svg">
<path d="M2.66953 8.91436L5.73167 4.77133C7.71103 2.09327 8.70071 0.754249 9.62407 1.03721C10.5474 1.32018 10.5474 2.96249 10.5474 6.24712V6.55682C10.5474 7.74151 10.5474 8.33386 10.926 8.70541L10.946 8.72466C11.3327 9.08836 11.9492 9.08836 13.1822 9.08836C15.4011 9.08836 16.5106 9.08836 16.8855 9.76131C16.8917 9.77245 16.8977 9.78368 16.9036 9.795C17.2576 10.4784 16.6152 11.3475 15.3304 13.0857L12.2683 17.2287C10.2889 19.9067 9.2992 21.2458 8.37584 20.9628C7.45248 20.6798 7.4525 19.0375 7.45255 15.7528L7.45255 15.4433C7.45257 14.2585 7.45258 13.6662 7.07404 13.2946L7.05401 13.2754C6.6673 12.9117 6.05079 12.9117 4.81775 12.9117C2.59888 12.9117 1.48945 12.9117 1.1145 12.2387C1.10829 12.2276 1.10225 12.2164 1.09639 12.205C0.742441 11.5217 1.3848 10.6526 2.66953 8.91436Z" stroke="white" stroke-width="1.5"/>
</svg>
