<svg width="113" height="46" viewBox="0 0 113 46" fill="none" xmlns="http://www.w3.org/2000/svg">
<path d="M63.051 2H92.7499C102.832 2 111 10.3797 111 20.7229C111 31.0661 102.832 39.4458 92.7499 39.4458H63.051C52.9691 39.4458 44.801 31.0661 44.801 20.7229C44.801 10.3797 52.9691 2 63.051 2Z" stroke="#F800E9" stroke-width="2.74097"/>
<path d="M24.5608 42.8884C23.3412 43.0632 22.3249 42.8535 21.4441 42.2244C20.5633 41.5953 19.818 40.7565 19.1066 39.7779C18.429 38.7994 17.7515 37.7509 17.1417 36.7024C16.5319 35.619 15.8544 34.7452 15.143 34.0113C14.7026 34.4656 14.1944 35.0248 13.6524 35.7238C13.1104 36.4228 12.5345 37.1917 11.9586 38.0305C11.3826 38.8693 10.7729 39.708 10.197 40.5468C9.62105 41.3856 9.01126 42.1545 8.43535 42.8535C7.85945 43.5525 7.28354 44.1466 6.74151 44.601C6.19948 45.0553 5.69132 45.3349 5.25092 45.4048C4.60726 45.5097 3.99748 45.4747 3.38769 45.3C2.81178 45.1252 2.26975 44.8456 1.79548 44.4961C1.3212 44.1466 0.914678 43.7272 0.609785 43.2729C0.304893 42.7836 0.101633 42.3293 0.033879 41.805L0 41.4555C0.372646 41.2109 0.914678 40.6866 1.59222 39.8828C2.26975 39.079 3.04892 38.1703 3.86197 37.1567C4.67501 36.1083 5.52194 35.0248 6.40274 33.8715C7.28354 32.7182 8.06271 31.6697 8.74024 30.6911C9.41778 29.7125 9.99369 28.8737 10.4341 28.1747C10.8745 27.4757 11.0778 27.0564 11.0778 26.9166C11.0778 26.8117 10.9084 26.4622 10.6035 25.8681C10.2986 25.2739 9.89206 24.505 9.35003 23.5265C8.808 22.5479 8.16434 21.4295 7.41905 20.1364C6.67376 18.8432 5.82683 17.4103 4.87828 15.8026C4.74277 15.558 4.53951 15.2784 4.30237 14.9289C4.06523 14.5794 3.79421 14.2299 3.5232 13.8804C3.25218 13.5309 2.98117 13.2164 2.71015 12.9368C2.43914 12.6222 2.23588 12.4125 2.03261 12.2727C3.01505 11.5388 4.06523 11.0495 5.14929 10.8748C6.36886 10.6651 7.58843 10.8398 8.74024 11.3641C9.89206 11.8883 10.8745 12.762 11.6875 13.9853C12.3651 15.0337 12.9071 15.8725 13.3136 16.5016C13.7202 17.1307 14.025 17.5851 14.2622 17.9346C14.4654 18.284 14.6348 18.5636 14.7365 18.7384C14.8381 18.9131 14.9397 19.0879 15.0075 19.2277C15.1091 19.3675 15.2107 19.5422 15.3462 19.7519C15.4818 19.9616 15.685 20.2762 15.956 20.6606C18.0225 18.3889 19.547 16.222 20.5972 14.1251C21.6473 12.063 22.1894 10.2457 22.2571 8.7079C22.7992 8.638 23.3412 8.74285 23.9171 8.9875C24.4591 9.23215 25.0012 9.58164 25.4416 10.036C25.9158 10.4903 26.2885 10.9796 26.6273 11.5738C26.966 12.1679 27.1693 12.7271 27.2709 13.3212C27.4742 14.6144 27.3048 15.9424 26.7628 17.2356C26.2546 18.5636 25.5771 19.8218 24.7979 21.0451C24.0187 22.2683 23.1718 23.4216 22.291 24.505C21.4102 25.5885 20.7327 26.5671 20.1906 27.4408C20.6988 28.2097 21.2408 29.1533 21.8167 30.2368C22.3926 31.3202 23.0363 32.4036 23.7477 33.4521C24.4253 34.5006 25.2044 35.4792 26.0175 36.318C26.8305 37.1917 27.7452 37.7858 28.7276 38.1004C28.7954 38.6596 28.7276 39.1838 28.5244 39.708C28.2872 40.2323 27.9823 40.6866 27.5758 41.141C27.1693 41.5604 26.695 41.9448 26.1869 42.2244C25.6109 42.6088 25.1028 42.7836 24.5608 42.8884Z" fill="#F800E9"/>
<path d="M51.9484 38.5998C50.718 38.7761 49.6927 38.5645 48.8041 37.9298C47.9497 37.2951 47.1636 36.4489 46.4459 35.4616C45.7624 34.4744 45.0788 33.4166 44.4637 32.3588C43.8485 31.2657 43.1649 30.3842 42.4472 29.6438C42.0029 30.1021 41.4903 30.6663 40.9434 31.3715C40.3966 32.0767 39.8156 32.8524 39.2346 33.6986C38.6536 34.5449 38.0384 35.3911 37.4574 36.2374C36.8764 37.0836 36.2612 37.8593 35.6802 38.5645C35.0992 39.2697 34.5182 39.8691 33.9714 40.3275C33.4246 40.7859 32.9119 41.0679 32.4676 41.1385C31.8183 41.2442 31.2031 41.209 30.5879 41.0327C30.0069 40.8564 29.4601 40.5743 28.9816 40.2217C28.5031 39.8691 28.093 39.446 27.7854 38.9876C27.4778 38.494 27.2728 38.0356 27.2044 37.5067L27.1702 37.1541C27.5462 36.9073 28.093 36.3784 28.7765 35.5674C29.4601 34.7564 30.2461 33.8397 31.0664 32.8172C31.8866 31.7594 32.741 30.6663 33.6296 29.5027C34.5182 28.3392 35.3043 27.2814 35.9878 26.2941C36.6714 25.3068 37.2524 24.4606 37.6967 23.7554C38.141 23.0502 38.346 22.6271 38.346 22.486C38.346 22.3803 38.1751 22.0277 37.8675 21.4282C37.56 20.8288 37.1498 20.0531 36.603 19.0658C36.0562 18.0786 35.4068 16.9502 34.6549 15.6456C33.903 14.341 33.0486 12.8954 32.0917 11.2734C31.955 11.0266 31.7499 10.7445 31.5107 10.3919C31.2714 10.0393 30.998 9.68673 30.7246 9.33413C30.4512 8.98153 30.1778 8.6642 29.9044 8.38212C29.631 8.06478 29.4259 7.85322 29.2208 7.71218C30.212 6.97173 31.2714 6.47809 32.3651 6.30179C33.5955 6.09023 34.8258 6.26653 35.9878 6.79543C37.1498 7.32433 38.141 8.20582 38.9612 9.43991C39.6447 10.4977 40.1916 11.3439 40.6017 11.9786C41.0118 12.6133 41.3194 13.0717 41.5586 13.4243C41.7637 13.7769 41.9346 14.0589 42.0371 14.2352C42.1396 14.4115 42.2422 14.5878 42.3105 14.7289C42.413 14.8699 42.5156 15.0462 42.6523 15.2578C42.789 15.4693 42.9941 15.7867 43.2675 16.1745C45.3522 13.8826 46.8902 11.6965 47.9497 9.58095C49.0092 7.50062 49.556 5.66712 49.6243 4.11569C50.1712 4.04517 50.718 4.15094 51.299 4.39776C51.8458 4.64458 52.3926 4.99718 52.8369 5.45556C53.3154 5.91393 53.6914 6.40757 54.0331 7.00699C54.3749 7.6064 54.58 8.17056 54.6825 8.76998C54.8876 10.0746 54.7167 11.4145 54.1698 12.7191C53.6572 14.0589 52.9737 15.3283 52.1876 16.5624C51.4015 17.7965 50.5471 18.9601 49.6585 20.0531C48.7699 21.1462 48.0864 22.1334 47.5396 23.0149C48.0522 23.7906 48.599 24.7427 49.18 25.8357C49.761 26.9288 50.4104 28.0218 51.1281 29.0796C51.8116 30.1374 52.5977 31.1247 53.418 31.9709C54.2382 32.8524 55.161 33.4518 56.1521 33.7692C56.2204 34.3333 56.1521 34.8622 55.947 35.3911C55.7078 35.92 55.4002 36.3784 54.9901 36.8368C54.58 37.2599 54.1015 37.6477 53.5888 37.9298C53.0078 38.3177 52.4952 38.494 51.9484 38.5998Z" fill="#F800E9"/>
<path d="M57.1443 12.049C58.2379 11.8022 59.0582 11.908 59.6392 12.3311C60.2202 12.7542 60.5619 13.3184 60.7328 13.9883C60.9037 14.8346 60.767 15.5398 60.2544 16.1392C59.7759 16.7386 59.024 17.1264 57.9645 17.3733C56.9392 17.5848 56.119 17.5143 55.538 17.1265C54.9228 16.7386 54.5468 16.1744 54.4101 15.5045C54.2392 14.623 54.376 13.8825 54.8886 13.2831C55.4354 12.6837 56.1531 12.2606 57.1443 12.049ZM58.7164 18.0432C59.5708 17.8669 60.3569 18.2548 61.0746 19.2068C61.7923 20.194 62.3733 21.8513 62.886 24.2489C63.5012 27.1755 63.6379 29.3263 63.2961 30.7367C62.9543 32.1471 62.1683 32.9934 60.9379 33.2754C59.9809 33.487 59.1607 33.1697 58.5113 32.3234C57.862 31.4772 57.281 29.8552 56.8025 27.4928C56.1873 24.5663 56.0848 22.3449 56.4607 20.7582C56.8709 19.2068 57.6227 18.29 58.7164 18.0432Z" fill="white"/>
<path d="M67.8751 31.8296C67.2599 31.9353 66.7472 31.8296 66.2688 31.5475C65.7903 31.2654 65.4485 30.807 65.1751 30.1724C64.9359 29.4672 64.6966 28.5504 64.4232 27.4221C64.1498 26.2938 63.9447 25.0597 63.7739 23.7551C63.6713 23.0499 63.5688 22.2389 63.4663 21.2869C63.3637 20.3701 63.2954 19.4181 63.1929 18.5014C63.1245 17.5494 63.0561 16.6679 63.022 15.8569C62.9878 15.0459 62.9536 14.3407 62.9536 13.8471C62.9878 12.754 63.1928 11.8725 63.603 11.1673C64.0131 10.4974 64.6625 10.0743 65.5852 9.93324C66.5764 9.7922 67.3624 10.0038 67.9092 10.5679C68.4561 11.1673 68.7978 11.9078 68.9345 12.8598C69.0371 13.6708 69.1396 14.6228 69.1738 15.7511C69.208 16.8794 69.208 18.0077 69.1396 19.1713L68.7978 19.0655C68.8662 18.2546 69.0712 17.4788 69.413 16.8089C69.7206 16.1037 70.1991 15.5395 70.7801 15.0459C71.3611 14.5875 72.113 14.2702 73.0016 14.1292C74.6762 13.8823 76.1117 14.3055 77.2737 15.4338C78.4357 16.5621 79.2217 18.4661 79.5977 21.1811C79.8711 23.0851 79.8027 24.6718 79.4268 26.047C79.0509 27.3868 78.4357 28.4446 77.5471 29.2203C76.6927 29.9961 75.6332 30.4897 74.4028 30.666C73.275 30.8423 72.2839 30.6307 71.3953 30.0666C70.5409 29.5024 69.8915 28.5857 69.4814 27.3516L70.0965 27.5631C70.0624 28.903 69.8573 29.9255 69.5156 30.6307C69.1396 31.3007 68.5928 31.6885 67.8751 31.8296ZM72.2155 26.2938C72.7965 26.2233 73.2408 25.8354 73.5826 25.2007C73.9243 24.5661 73.9927 23.614 73.8218 22.3447C73.6851 21.3574 73.4117 20.5817 73.0016 19.9823C72.5914 19.3829 71.9763 19.1713 71.1902 19.3123C70.5409 19.4181 70.0624 19.7707 69.7548 20.3701C69.4472 20.9696 69.3788 21.851 69.5156 22.9441C69.6523 24.0019 69.994 24.8481 70.4725 25.4828C70.9851 26.1175 71.5662 26.3643 72.2155 26.2938Z" fill="white"/>
<path d="M85.0309 29.502C84.2107 29.5725 83.5271 29.4315 83.0145 29.1494C82.5018 28.8673 82.0575 28.3384 81.7157 27.5627C81.374 26.8222 81.1006 25.7292 80.8613 24.3541C80.6221 22.9789 80.4512 21.2865 80.3145 19.3119C80.2462 18.1131 80.212 16.9142 80.212 15.7154C80.212 14.4813 80.2803 13.353 80.3829 12.3305C80.4854 11.3079 80.6221 10.5322 80.793 10.0386C81.0664 9.19234 81.4082 8.55767 81.8183 8.16981C82.1942 7.78195 82.7069 7.57039 83.3221 7.53514C83.9714 7.49988 84.5182 7.64092 84.9625 7.95825C85.4068 8.27559 85.7828 8.87501 86.022 9.68598C86.1929 10.2854 86.3638 10.9906 86.5347 11.8368C86.6714 12.6831 86.7739 13.5646 86.8423 14.5166C86.9106 15.5744 86.9106 16.7027 86.8764 17.8663C86.8423 19.0651 86.7397 20.1934 86.603 21.3217C86.4663 22.45 86.2954 23.5078 86.0562 24.4598L83.6296 24.883C84.1081 24.4246 84.6891 24.072 85.3043 23.8252C85.9195 23.5431 86.5005 23.402 87.0815 23.3668C87.7992 23.3315 88.3802 23.4726 88.8245 23.8252C89.2688 24.1778 89.5081 24.7419 89.5422 25.5529C89.5764 26.2228 89.4055 26.8222 89.0296 27.4217C88.6536 27.9858 88.1068 28.4794 87.4233 28.832C86.7739 29.2199 85.9537 29.4315 85.0309 29.502Z" fill="white"/>
<path d="M98.5998 29.2559C96.3783 29.2559 94.6353 28.9385 93.3366 28.3038C92.0379 27.6692 91.0809 26.7877 90.4999 25.6594C89.9189 24.4958 89.6455 23.1207 89.6455 21.534C89.6455 19.5242 90.0898 17.7964 90.9101 16.386C91.7303 14.9756 92.8581 13.8826 94.2935 13.1421C95.729 12.4017 97.3353 12.0138 99.1466 12.0491C101.3 12.0491 102.872 12.5075 103.863 13.389C104.854 14.2704 105.367 15.434 105.367 16.8444C105.367 17.9727 105.059 18.96 104.444 19.771C103.829 20.6172 103.009 21.2519 101.915 21.675C100.855 22.0981 99.5909 22.3449 98.2239 22.3097C97.5745 22.3097 96.9593 22.2392 96.3441 22.1686C95.729 22.0629 95.1821 21.9571 94.7037 21.7808L95.353 20.2294C95.2847 20.6877 95.2505 21.1108 95.2505 21.5692C95.2505 22.3802 95.5239 22.9444 96.1049 23.2617C96.6859 23.579 97.4378 23.7553 98.4631 23.7906C99.42 23.7906 100.274 23.6848 100.958 23.4733C101.642 23.2617 102.257 23.0501 102.769 22.8386C103.282 22.627 103.795 22.5212 104.239 22.5212C104.547 22.5212 104.888 22.5918 105.23 22.7681C105.572 22.9444 105.845 23.1912 106.085 23.5438C106.324 23.8964 106.426 24.3547 106.426 24.9542C106.426 25.7651 106.119 26.5056 105.538 27.1403C104.957 27.7749 104.068 28.3038 102.906 28.6564C101.744 29.0796 100.309 29.2559 98.5998 29.2559ZM97.096 19.5242C97.9504 19.5242 98.7023 19.3126 99.3517 18.8895C99.9669 18.4664 100.309 17.9375 100.309 17.3028C100.309 16.8797 100.172 16.5623 99.8985 16.3155C99.6251 16.0687 99.215 15.9277 98.7023 15.9277C98.1555 15.9277 97.6087 16.0334 97.1302 16.245C96.6517 16.4566 96.2416 16.7386 95.934 17.0912C95.6264 17.4438 95.4556 17.8317 95.4556 18.2548C95.4556 18.6779 95.5923 18.9953 95.8998 19.2068C96.2074 19.4184 96.5834 19.5242 97.096 19.5242Z" fill="white"/>
</svg>
